<mxfile host="app.diagrams.net" modified="2022-05-12T13:48:19.886Z" agent="5.0 (Windows NT 10.0; Win64; x64) AppleWebKit/537.36 (KHTML, like Gecko) Chrome/101.0.4951.54 Safari/537.36 Edg/101.0.1210.39" etag="O3jfpx2Ov5jJswd8dmt_" version="18.0.3" type="github">
  <diagram id="kgpKYQtTHZ0yAKxKKP6v" name="Page-1">
    <mxGraphModel dx="1422" dy="794" grid="1" gridSize="10" guides="1" tooltips="1" connect="1" arrows="1" fold="1" page="1" pageScale="1" pageWidth="850" pageHeight="1100" math="0" shadow="0">
      <root>
        <mxCell id="0" />
        <mxCell id="1" parent="0" />
        <mxCell id="3nuBFxr9cyL0pnOWT2aG-1" value="Mainactivity.Class" style="shape=umlLifeline;perimeter=lifelinePerimeter;container=1;collapsible=0;recursiveResize=0;rounded=0;shadow=0;strokeWidth=1;" parent="1" vertex="1">
          <mxGeometry x="650" y="110" width="100" height="690" as="geometry" />
        </mxCell>
        <mxCell id="3nuBFxr9cyL0pnOWT2aG-2" value="" style="points=[];perimeter=orthogonalPerimeter;rounded=0;shadow=0;strokeWidth=1;" parent="3nuBFxr9cyL0pnOWT2aG-1" vertex="1">
          <mxGeometry x="45" y="70" width="10" height="620" as="geometry" />
        </mxCell>
        <mxCell id="3nuBFxr9cyL0pnOWT2aG-5" value="DeliveryFragment" style="shape=umlLifeline;perimeter=lifelinePerimeter;container=1;collapsible=0;recursiveResize=0;rounded=0;shadow=0;strokeWidth=1;" parent="1" vertex="1">
          <mxGeometry x="1190" y="110" width="100" height="690" as="geometry" />
        </mxCell>
        <mxCell id="3nuBFxr9cyL0pnOWT2aG-6" value="" style="points=[];perimeter=orthogonalPerimeter;rounded=0;shadow=0;strokeWidth=1;" parent="3nuBFxr9cyL0pnOWT2aG-5" vertex="1">
          <mxGeometry x="45" y="270" width="10" height="420" as="geometry" />
        </mxCell>
        <mxCell id="3nuBFxr9cyL0pnOWT2aG-7" value="return robotstatus" style="verticalAlign=bottom;endArrow=open;dashed=1;endSize=8;shadow=0;strokeWidth=1;entryX=0;entryY=0.967;entryDx=0;entryDy=0;entryPerimeter=0;" parent="1" source="MGZy4PzXdwVTrjJlv7CW-6" target="3nuBFxr9cyL0pnOWT2aG-6" edge="1">
          <mxGeometry relative="1" as="geometry">
            <mxPoint x="645" y="246" as="targetPoint" />
            <Array as="points">
              <mxPoint x="580" y="790" />
            </Array>
          </mxGeometry>
        </mxCell>
        <mxCell id="MGZy4PzXdwVTrjJlv7CW-25" value="robotstatus+Navrespone=navresult" style="edgeLabel;html=1;align=center;verticalAlign=middle;resizable=0;points=[];" vertex="1" connectable="0" parent="3nuBFxr9cyL0pnOWT2aG-7">
          <mxGeometry x="0.4544" y="-1" relative="1" as="geometry">
            <mxPoint x="23" y="-8" as="offset" />
          </mxGeometry>
        </mxCell>
        <mxCell id="3nuBFxr9cyL0pnOWT2aG-8" value="get robot status" style="verticalAlign=bottom;endArrow=block;shadow=0;strokeWidth=1;" parent="1" source="3nuBFxr9cyL0pnOWT2aG-6" target="MGZy4PzXdwVTrjJlv7CW-6" edge="1">
          <mxGeometry relative="1" as="geometry">
            <mxPoint x="870" y="420" as="sourcePoint" />
            <Array as="points">
              <mxPoint x="690" y="740" />
              <mxPoint x="510" y="740" />
            </Array>
          </mxGeometry>
        </mxCell>
        <mxCell id="MGZy4PzXdwVTrjJlv7CW-21" value="Navpoint of Robotstatus" style="edgeLabel;html=1;align=center;verticalAlign=middle;resizable=0;points=[];" vertex="1" connectable="0" parent="3nuBFxr9cyL0pnOWT2aG-8">
          <mxGeometry x="-0.4168" y="1" relative="1" as="geometry">
            <mxPoint x="32" y="-11" as="offset" />
          </mxGeometry>
        </mxCell>
        <mxCell id="MGZy4PzXdwVTrjJlv7CW-3" value="Application.Class" style="shape=umlLifeline;perimeter=lifelinePerimeter;whiteSpace=wrap;html=1;container=1;collapsible=0;recursiveResize=0;outlineConnect=0;" vertex="1" parent="1">
          <mxGeometry x="20" y="110" width="100" height="740" as="geometry" />
        </mxCell>
        <mxCell id="MGZy4PzXdwVTrjJlv7CW-9" value="create 4 class instance&amp;nbsp;" style="endArrow=block;endFill=1;html=1;edgeStyle=orthogonalEdgeStyle;align=left;verticalAlign=top;rounded=0;" edge="1" parent="MGZy4PzXdwVTrjJlv7CW-3" target="MGZy4PzXdwVTrjJlv7CW-7">
          <mxGeometry x="-1" relative="1" as="geometry">
            <mxPoint x="50" y="140" as="sourcePoint" />
            <mxPoint x="210" y="140" as="targetPoint" />
            <Array as="points">
              <mxPoint x="450" y="140" />
              <mxPoint x="450" y="140" />
            </Array>
          </mxGeometry>
        </mxCell>
        <mxCell id="MGZy4PzXdwVTrjJlv7CW-10" value="1" style="edgeLabel;resizable=0;html=1;align=left;verticalAlign=bottom;" connectable="0" vertex="1" parent="MGZy4PzXdwVTrjJlv7CW-9">
          <mxGeometry x="-1" relative="1" as="geometry" />
        </mxCell>
        <mxCell id="MGZy4PzXdwVTrjJlv7CW-4" value="PointListClient.Class" style="shape=umlLifeline;perimeter=lifelinePerimeter;whiteSpace=wrap;html=1;container=1;collapsible=0;recursiveResize=0;outlineConnect=0;" vertex="1" parent="1">
          <mxGeometry x="140" y="110" width="120" height="720" as="geometry" />
        </mxCell>
        <mxCell id="MGZy4PzXdwVTrjJlv7CW-5" value="NaviPointClient" style="shape=umlLifeline;perimeter=lifelinePerimeter;whiteSpace=wrap;html=1;container=1;collapsible=0;recursiveResize=0;outlineConnect=0;" vertex="1" parent="1">
          <mxGeometry x="270" y="110" width="100" height="720" as="geometry" />
        </mxCell>
        <mxCell id="MGZy4PzXdwVTrjJlv7CW-6" value="robotstatusClient" style="shape=umlLifeline;perimeter=lifelinePerimeter;whiteSpace=wrap;html=1;container=1;collapsible=0;recursiveResize=0;outlineConnect=0;" vertex="1" parent="1">
          <mxGeometry x="390" y="110" width="100" height="700" as="geometry" />
        </mxCell>
        <mxCell id="MGZy4PzXdwVTrjJlv7CW-7" value="sendWifiClient" style="shape=umlLifeline;perimeter=lifelinePerimeter;whiteSpace=wrap;html=1;container=1;collapsible=0;recursiveResize=0;outlineConnect=0;" vertex="1" parent="1">
          <mxGeometry x="510" y="110" width="100" height="690" as="geometry" />
        </mxCell>
        <mxCell id="3nuBFxr9cyL0pnOWT2aG-3" value="call send wifi info" style="verticalAlign=bottom;startArrow=oval;endArrow=block;startSize=8;shadow=0;strokeWidth=1;exitX=0.6;exitY=-0.005;exitDx=0;exitDy=0;exitPerimeter=0;" parent="1" target="MGZy4PzXdwVTrjJlv7CW-7" edge="1" source="3nuBFxr9cyL0pnOWT2aG-2">
          <mxGeometry relative="1" as="geometry">
            <mxPoint x="635" y="180" as="sourcePoint" />
          </mxGeometry>
        </mxCell>
        <mxCell id="MGZy4PzXdwVTrjJlv7CW-11" value="return pointlist&amp;nbsp; or error" style="html=1;verticalAlign=bottom;endArrow=open;dashed=1;endSize=8;rounded=0;" edge="1" parent="1" source="MGZy4PzXdwVTrjJlv7CW-4" target="MGZy4PzXdwVTrjJlv7CW-22">
          <mxGeometry x="-0.2388" relative="1" as="geometry">
            <mxPoint x="460" y="340" as="sourcePoint" />
            <mxPoint x="690" y="340" as="targetPoint" />
            <Array as="points">
              <mxPoint x="770" y="330" />
            </Array>
            <mxPoint x="1" as="offset" />
          </mxGeometry>
        </mxCell>
        <mxCell id="MGZy4PzXdwVTrjJlv7CW-12" value="get point list" style="html=1;verticalAlign=bottom;endArrow=block;rounded=0;exitX=0.1;exitY=0.195;exitDx=0;exitDy=0;exitPerimeter=0;" edge="1" parent="1" source="3nuBFxr9cyL0pnOWT2aG-2" target="MGZy4PzXdwVTrjJlv7CW-4">
          <mxGeometry x="0.278" width="80" relative="1" as="geometry">
            <mxPoint x="690" y="300" as="sourcePoint" />
            <mxPoint x="460" y="340" as="targetPoint" />
            <Array as="points">
              <mxPoint x="420" y="300" />
            </Array>
            <mxPoint x="1" as="offset" />
          </mxGeometry>
        </mxCell>
        <mxCell id="MGZy4PzXdwVTrjJlv7CW-14" value="wifi callback" style="html=1;verticalAlign=bottom;endArrow=open;dashed=1;endSize=8;rounded=0;entryX=0.1;entryY=0.061;entryDx=0;entryDy=0;entryPerimeter=0;" edge="1" parent="1" source="MGZy4PzXdwVTrjJlv7CW-7" target="3nuBFxr9cyL0pnOWT2aG-2">
          <mxGeometry relative="1" as="geometry">
            <mxPoint x="460" y="380" as="sourcePoint" />
            <mxPoint x="380" y="380" as="targetPoint" />
          </mxGeometry>
        </mxCell>
        <mxCell id="MGZy4PzXdwVTrjJlv7CW-15" value="return pointlist" style="html=1;verticalAlign=bottom;endArrow=open;dashed=1;endSize=8;rounded=0;" edge="1" parent="1" source="MGZy4PzXdwVTrjJlv7CW-22" target="3nuBFxr9cyL0pnOWT2aG-5">
          <mxGeometry x="-0.0286" y="10" relative="1" as="geometry">
            <mxPoint x="900" y="260" as="sourcePoint" />
            <mxPoint x="880" y="260" as="targetPoint" />
            <Array as="points">
              <mxPoint x="1090" y="270" />
            </Array>
            <mxPoint as="offset" />
          </mxGeometry>
        </mxCell>
        <mxCell id="MGZy4PzXdwVTrjJlv7CW-17" value="send point id" style="html=1;verticalAlign=bottom;endArrow=block;rounded=0;exitX=0.2;exitY=0.581;exitDx=0;exitDy=0;exitPerimeter=0;" edge="1" parent="1" source="3nuBFxr9cyL0pnOWT2aG-6" target="MGZy4PzXdwVTrjJlv7CW-5">
          <mxGeometry width="80" relative="1" as="geometry">
            <mxPoint x="380" y="500" as="sourcePoint" />
            <mxPoint x="460" y="500" as="targetPoint" />
          </mxGeometry>
        </mxCell>
        <mxCell id="MGZy4PzXdwVTrjJlv7CW-19" value="NaviPoint(1)" style="edgeLabel;html=1;align=center;verticalAlign=middle;resizable=0;points=[];" vertex="1" connectable="0" parent="MGZy4PzXdwVTrjJlv7CW-17">
          <mxGeometry x="-0.6018" y="-2" relative="1" as="geometry">
            <mxPoint as="offset" />
          </mxGeometry>
        </mxCell>
        <mxCell id="MGZy4PzXdwVTrjJlv7CW-18" value="return navpoint response" style="html=1;verticalAlign=bottom;endArrow=open;dashed=1;endSize=8;rounded=0;entryX=0.5;entryY=0.69;entryDx=0;entryDy=0;entryPerimeter=0;" edge="1" parent="1" source="MGZy4PzXdwVTrjJlv7CW-5" target="3nuBFxr9cyL0pnOWT2aG-6">
          <mxGeometry relative="1" as="geometry">
            <mxPoint x="460" y="620" as="sourcePoint" />
            <mxPoint x="1180" y="660" as="targetPoint" />
          </mxGeometry>
        </mxCell>
        <mxCell id="MGZy4PzXdwVTrjJlv7CW-20" value="Navipoint response" style="edgeLabel;html=1;align=center;verticalAlign=middle;resizable=0;points=[];" vertex="1" connectable="0" parent="MGZy4PzXdwVTrjJlv7CW-18">
          <mxGeometry x="0.554" y="1" relative="1" as="geometry">
            <mxPoint x="15" as="offset" />
          </mxGeometry>
        </mxCell>
        <mxCell id="MGZy4PzXdwVTrjJlv7CW-22" value="ViewModel" style="shape=umlLifeline;perimeter=lifelinePerimeter;whiteSpace=wrap;html=1;container=1;collapsible=0;recursiveResize=0;outlineConnect=0;" vertex="1" parent="1">
          <mxGeometry x="840" y="110" width="100" height="720" as="geometry" />
        </mxCell>
        <mxCell id="MGZy4PzXdwVTrjJlv7CW-16" value="get pointlist" style="html=1;verticalAlign=bottom;endArrow=block;rounded=0;" edge="1" parent="1" target="MGZy4PzXdwVTrjJlv7CW-22">
          <mxGeometry width="80" relative="1" as="geometry">
            <mxPoint x="1240" y="210" as="sourcePoint" />
            <mxPoint x="705" y="213" as="targetPoint" />
            <mxPoint as="offset" />
          </mxGeometry>
        </mxCell>
        <mxCell id="MGZy4PzXdwVTrjJlv7CW-23" value="instance" style="html=1;verticalAlign=bottom;endArrow=block;rounded=0;" edge="1" parent="1">
          <mxGeometry width="80" relative="1" as="geometry">
            <mxPoint x="750" y="140" as="sourcePoint" />
            <mxPoint x="840" y="140" as="targetPoint" />
            <Array as="points" />
          </mxGeometry>
        </mxCell>
        <mxCell id="MGZy4PzXdwVTrjJlv7CW-28" value="start this page" style="html=1;verticalAlign=bottom;endArrow=block;rounded=0;exitX=0.53;exitY=0.12;exitDx=0;exitDy=0;exitPerimeter=0;" edge="1" parent="1" source="3nuBFxr9cyL0pnOWT2aG-1" target="3nuBFxr9cyL0pnOWT2aG-5">
          <mxGeometry width="80" relative="1" as="geometry">
            <mxPoint x="760" y="380" as="sourcePoint" />
            <mxPoint x="840" y="380" as="targetPoint" />
            <Array as="points">
              <mxPoint x="810" y="193" />
            </Array>
          </mxGeometry>
        </mxCell>
      </root>
    </mxGraphModel>
  </diagram>
</mxfile>
